<svg version="1.1" id="Layer_1" xmlns="http://www.w3.org/2000/svg" xmlns:xlink="http://www.w3.org/1999/xlink" x="0px" y="0px"
	 width="100%" viewBox="-130 -274 1284 1284" enable-background="new 0 0 1024 736" xml:space="preserve">
<rect x="-130" y="-274" width="1284" height="1284" rx="170" ry="170" fill="#2a7a50"/>
<path fill="#000000" opacity="1.000000" stroke="none" 
	d="
M1.000000,489.468658 
	C2.916595,485.543335 2.702809,481.575958 3.620160,477.875671 
	C10.448560,450.332153 25.842299,427.795166 45.010292,407.624420 
	C76.327827,374.668579 113.447311,349.440063 153.098419,327.702759 
	C207.030457,298.136444 264.146088,275.928772 321.708282,254.735962 
	C351.559570,243.745560 381.322662,232.515121 411.102692,221.332199 
	C416.905548,219.153122 422.668915,217.204712 429.030884,217.565002 
	C433.159637,217.798813 436.966248,218.851257 440.297913,221.160309 
	C452.896088,229.891617 465.408447,238.746780 477.956512,247.550430 
	C478.763977,248.116974 479.602142,248.639786 480.426025,249.182953 
	C480.378601,249.746414 480.331177,250.309891 480.283752,250.873352 
	C458.411987,259.175232 436.540253,267.477081 414.668518,275.778931 
	C414.690613,276.192505 414.712708,276.606079 414.734802,277.019653 
	C427.280670,275.076172 437.310791,280.986511 447.629364,286.487061 
	C457.175171,291.575684 467.136078,295.885406 476.911407,300.543976 
	C478.376404,301.242126 480.128418,301.505951 481.157684,303.446747 
	C479.898804,304.830505 478.116852,304.988373 476.417175,305.429291 
	C440.358490,314.784088 406.153748,328.296844 375.565643,350.060883 
	C356.165924,363.864136 339.186279,380.297607 323.322205,397.905151 
	C297.553375,426.505951 271.985107,455.304321 243.923889,481.707336 
	C224.837357,499.665985 201.429962,509.464203 176.221161,515.200256 
	C171.251038,516.331116 168.514542,518.434021 166.941544,523.390381 
	C161.554703,540.363770 165.078186,556.277405 171.962204,571.865906 
	C174.246658,577.039001 176.863571,582.073730 179.502914,587.079773 
	C185.166733,597.822449 192.653229,601.288208 204.682800,599.153381 
	C231.431229,594.406372 256.878204,585.527588 281.381104,574.099487 
	C315.046539,558.398010 348.269653,541.746948 381.958069,526.096497 
	C402.348785,516.623596 423.273651,508.171387 445.813293,505.199738 
	C478.093842,500.943909 508.273651,506.096985 534.375244,526.958862 
	C545.259277,535.658020 552.308533,546.579712 551.350281,561.338379 
	C550.714966,571.124756 546.410522,579.261536 540.024536,586.327942 
	C532.813599,594.307190 524.082214,600.205627 514.179871,604.262146 
	C511.955750,602.032898 511.591766,599.457825 511.029480,597.116394 
	C506.553467,578.477356 493.622009,568.541504 476.208313,563.499573 
	C456.783508,557.875244 437.601074,559.817261 418.886932,566.774170 
	C395.747833,575.376038 373.715302,586.496643 351.426880,597.024170 
	C320.397736,611.680115 289.362976,626.324402 258.335205,640.983276 
	C256.413849,641.891052 254.321487,642.564636 252.955658,644.266968 
	C253.590881,646.530212 255.487076,647.058716 257.030273,647.938354 
	C280.862000,661.522339 306.733643,669.515564 333.278351,675.608459 
	C374.754822,685.128845 416.861816,688.329163 459.254425,686.534912 
	C521.092285,683.917725 580.220703,670.289307 634.699524,639.864807 
	C659.326050,626.111877 682.030090,609.841003 697.912109,585.797913 
	C704.561035,575.732483 708.718750,564.854065 707.728088,552.414185 
	C707.064636,544.082397 706.528503,543.218872 698.341736,543.394531 
	C672.965942,543.939026 647.729126,543.086975 623.070190,536.223328 
	C606.297974,531.554932 590.337097,524.938660 575.394104,515.958313 
	C568.204529,511.637543 561.857178,506.292877 556.143738,500.146118 
	C548.738037,492.178864 545.890503,482.428833 544.789734,471.954895 
	C541.257996,438.350922 544.021240,404.742889 544.760742,371.136810 
	C544.774536,370.510132 545.122620,369.890778 545.317810,369.257874 
	C548.401123,368.484589 550.950073,370.090942 553.635010,370.751465 
	C579.592468,377.137482 604.748291,385.769623 628.635620,397.875946 
	C657.898865,412.706818 684.875488,430.454407 704.409119,457.632233 
	C708.309143,463.058441 711.839844,468.721191 714.534912,474.833038 
	C715.783691,477.664856 717.417603,478.353668 720.375732,477.735474 
	C749.827148,471.580414 779.313110,465.587311 809.006714,458.278015 
	C806.726379,454.136627 803.564392,451.278870 800.533936,448.346558 
	C770.609680,419.391052 737.526245,394.426239 703.077454,371.177002 
	C647.089355,333.391052 588.248657,300.318329 529.996643,266.269287 
	C494.740540,245.661728 459.818512,224.517151 427.328522,199.652939 
	C407.449341,184.439651 387.951019,168.779984 373.353607,148.033539 
	C363.921326,134.627945 357.118347,120.159676 355.648407,103.567017 
	C353.793427,82.628525 360.496216,64.200935 372.259613,47.317341 
	C382.644684,32.411942 395.200043,19.647257 410.247925,9.370937 
	C413.815491,6.934609 417.137604,4.138876 420.786316,1.254237 
	C421.444458,1.000000 421.888885,1.000000 422.613556,1.358110 
	C422.185760,3.400247 421.559021,5.124117 420.756470,6.761827 
	C415.480927,17.527395 409.951294,28.174290 404.915405,39.050137 
	C396.709503,56.772301 394.870483,74.857574 403.456696,93.034729 
	C409.807098,106.478676 419.868439,116.935547 431.864044,125.343758 
	C444.538452,134.227768 457.657623,142.485535 470.690155,150.849106 
	C539.934326,195.286377 610.496826,237.595703 680.508484,280.794922 
	C719.512085,304.861328 757.799500,330.020844 792.710876,359.865265 
	C819.507385,382.772705 845.064453,406.896820 860.882812,439.281982 
	C862.393799,442.375366 864.373108,441.573669 866.657410,440.609009 
	C883.018677,433.699738 898.227234,424.876434 912.009521,413.619934 
	C917.751892,408.929871 922.645752,403.518616 926.441223,397.179321 
	C932.305908,387.383820 933.296143,377.250366 928.325684,366.697235 
	C925.392517,360.469666 921.311096,355.002045 917.534058,349.319824 
	C916.538208,347.821594 914.747742,346.464417 915.559143,343.920197 
	C916.918030,344.307709 918.051697,344.513641 919.091980,344.944855 
	C947.696594,356.800659 976.721985,367.628845 1004.926025,380.471863 
	C1014.124756,384.660614 1021.606934,390.093719 1025.000000,400.000000 
	C1025.000000,404.024536 1025.000000,408.049103 1024.845947,412.857483 
	C1020.743652,427.557068 1012.339844,438.620239 1002.040588,448.338959 
	C995.866516,454.165009 989.135376,459.361145 982.122925,464.189240 
	C949.348145,486.754486 912.364197,498.214386 873.722046,505.206421 
	C869.646912,505.943756 867.312988,507.296326 866.021851,511.496277 
	C861.262085,526.978943 853.035217,540.586182 842.809570,553.098022 
	C832.698975,565.468994 820.046204,575.001404 807.914124,585.136719 
	C803.015503,589.229126 802.145203,589.274658 796.306213,584.305054 
	C815.282776,563.722351 834.731079,543.107849 834.497864,512.622437 
	C832.657532,511.559357 831.500061,511.929993 830.360718,512.087341 
	C815.547058,514.133301 800.742004,516.243530 785.919922,518.226135 
	C767.638245,520.671448 749.340210,522.994568 731.055908,525.420532 
	C728.704712,525.732483 726.426697,526.167358 726.693176,529.577637 
	C728.006531,546.387268 727.639038,563.165894 725.330505,579.878479 
	C722.952942,597.090393 719.373413,613.944153 710.707581,629.317139 
	C696.823547,653.947388 676.308411,671.910217 652.771545,686.729431 
	C620.868591,706.816101 585.841736,719.244019 549.472168,728.327881 
	C535.433472,731.834229 521.109741,733.878723 507.000000,737.000000 
	C458.645782,737.000000 410.291534,737.000000 361.173401,736.777954 
	C359.302002,736.201599 358.218628,735.692322 357.083496,735.515991 
	C337.642303,732.495056 318.620026,727.706238 299.929169,721.650208 
	C256.530518,707.588623 216.057465,688.286438 183.128571,655.663452 
	C181.509079,654.058960 179.518448,653.576111 177.283356,653.248352 
	C167.910889,651.873657 158.459427,650.772034 149.237381,648.684631 
	C116.153786,641.196289 85.886658,627.190735 58.482330,607.325989 
	C31.787569,587.975586 12.517401,563.068787 4.187841,530.595398 
	C2.951352,525.774902 2.054160,520.867310 1.000000,516.000000 
	C1.000000,507.312439 1.000000,498.624878 1.000000,489.468658 
M188.489365,388.938416 
	C190.999146,389.155487 193.715164,388.168610 196.716507,390.468201 
	C194.563263,391.440887 192.971878,392.213837 191.339813,392.888367 
	C179.492569,397.784485 167.231201,401.722015 155.844986,407.679504 
	C142.615814,414.601227 130.328445,422.857422 121.200188,434.982788 
	C114.701912,443.614594 115.264748,451.758362 122.834465,459.145233 
	C130.161728,466.295471 139.184769,470.490570 148.894424,473.349426 
	C150.582001,473.846283 152.166458,473.556793 153.732529,472.801605 
	C164.712555,467.506775 176.628769,464.790466 187.971771,460.426270 
	C206.831116,453.170258 224.234634,443.810547 239.710037,430.802368 
	C264.461060,409.997223 285.122894,385.335114 305.884399,360.780182 
	C330.483307,331.686646 357.807037,305.815918 391.355896,287.132446 
	C392.914398,286.264496 394.334869,285.148560 395.819611,284.148132 
	C392.530548,284.223938 389.854462,285.090149 387.239532,286.112732 
	C338.081482,305.336304 288.809814,324.277008 239.822113,343.925659 
	C208.615387,356.442474 177.391144,369.022034 148.235764,386.101166 
	C108.791718,409.207336 75.630669,438.955658 50.539989,477.373108 
	C45.731186,484.736084 42.737972,492.700348 42.237907,501.632019 
	C41.336647,517.729492 47.364670,531.384155 57.218658,543.411743 
	C78.186172,569.004333 106.799850,581.893677 137.727783,590.636230 
	C139.776443,591.215332 142.129242,592.567139 144.485886,590.630981 
	C144.442764,589.847412 144.522858,588.996155 144.334061,588.209534 
	C139.677185,568.805786 139.268051,549.357544 143.630951,529.846008 
	C144.538071,525.789185 142.831497,522.595093 139.877304,520.119690 
	C137.211380,517.885864 134.340439,515.853821 131.381882,514.020020 
	C122.263268,508.367981 113.796303,501.928619 106.826981,493.723785 
	C97.129974,482.307648 91.068886,469.535950 92.432098,454.046814 
	C94.014122,436.071655 104.017761,422.975555 117.624084,412.628357 
	C138.170761,397.003265 162.183060,390.712921 188.489365,388.938416 
M643.280029,445.275940 
	C623.625427,435.860657 603.168152,428.768585 582.143494,423.398468 
	C580.792236,426.018463 581.450867,427.875549 582.135742,429.765930 
	C584.453186,436.162781 588.144714,441.730316 593.154968,446.215302 
	C620.613098,470.794952 653.239502,482.277649 689.693970,483.752228 
	C692.895447,483.881714 696.166016,483.343750 699.380249,480.872162 
	C682.242737,466.304779 663.683960,455.041077 643.280029,445.275940 
z"/>
<path fill="#000000" opacity="1.000000" stroke="none" 
	d="
M441.261108,388.233459 
	C439.670502,382.465149 443.652618,380.746063 447.375122,379.296204 
	C460.418396,374.216156 473.600922,369.327026 485.945007,362.800354 
	C494.724945,358.158173 500.961395,358.851166 508.340607,365.655365 
	C517.986084,374.549225 528.900513,382.065338 539.243408,390.206604 
	C540.385315,391.105438 541.879456,391.734528 542.461121,394.307831 
	C525.956970,401.888062 509.277313,409.548889 491.452789,417.735565 
	C503.757111,429.003204 516.704346,437.912567 528.411987,447.977783 
	C527.720581,450.657867 525.624512,450.829590 524.059204,451.514618 
	C506.511505,459.194092 488.902618,466.734497 471.386871,474.485535 
	C468.393188,475.810333 466.410156,474.913422 464.165771,473.119781 
	C453.884125,464.903046 443.510345,456.801636 433.214935,448.601990 
	C427.100525,443.732300 427.259216,439.132721 434.002899,434.964417 
	C437.948608,432.525543 442.286285,430.684814 446.546997,428.799530 
	C453.858276,425.564362 461.263275,422.541748 468.598297,419.359253 
	C473.683563,417.152924 474.000488,415.049469 469.639343,411.579620 
	C462.599426,405.978424 455.430267,400.540009 448.351715,394.986938 
	C445.876801,393.045380 443.065613,391.444214 441.261108,388.233459 
z"/>
<path fill="#000000" opacity="1.000000" stroke="none" 
	d="
M444.852020,599.791626 
	C453.943726,594.499878 456.343964,594.703491 463.643463,600.864441 
	C466.702484,603.446350 467.350647,606.136047 463.856567,608.580444 
	C459.773224,611.437012 460.793610,613.635315 464.051697,616.234558 
	C465.650604,617.510071 467.873535,618.416809 468.223602,620.859070 
	C458.567963,629.175781 451.177185,629.938965 443.355743,623.473999 
	C435.164215,616.703125 435.709198,605.876404 444.852020,599.791626 
z"/>
<path fill="#000000" opacity="1.000000" stroke="none" 
	d="
M857.869324,244.685257 
	C860.545837,242.917038 861.788879,245.065628 863.249878,246.199188 
	C876.017517,256.105560 888.732849,266.079346 901.493347,275.994965 
	C903.031555,277.190216 904.376648,278.806030 907.292480,279.008148 
	C912.507812,270.912994 917.906372,262.552216 923.285767,254.179138 
	C931.389099,241.566055 939.569519,229.000931 947.515076,216.289047 
	C949.672424,212.837509 951.271851,212.091644 954.736511,214.939529 
	C968.506775,226.258270 982.466248,237.348831 996.461853,248.389297 
	C998.938171,250.342667 999.288940,251.834183 997.547913,254.558167 
	C984.000549,275.753479 970.555359,297.014618 957.195435,318.328613 
	C955.244629,321.440918 953.643555,321.434143 950.930298,319.250977 
	C938.341614,309.121765 925.631592,299.143341 912.957336,289.120605 
	C907.176025,284.548737 907.110840,284.522369 903.281860,290.526276 
	C890.921204,309.907501 878.551575,329.283600 866.329163,348.751923 
	C864.339478,351.921234 862.867310,353.091705 859.453918,350.316010 
	C845.624817,339.070129 831.679504,327.963531 817.617371,317.010651 
	C814.688354,314.729279 814.539612,312.867462 816.398499,309.951843 
	C830.189087,288.321747 843.894348,266.637268 857.869324,244.685257 
z"/>
<path fill="#000000" opacity="1.000000" stroke="none" 
	d="
M766.186768,551.907349 
	C765.590454,554.762573 765.039001,557.189941 764.536194,559.627319 
	C763.876404,562.825928 763.995850,566.490356 759.041504,566.337219 
	C754.449646,566.195129 750.111023,567.227600 748.152527,560.678223 
	C745.873474,553.057190 744.736145,545.866638 747.765625,538.338501 
	C749.695435,533.542664 751.519958,532.856873 759.870728,533.707764 
	C764.110229,534.139709 765.920715,536.612671 766.355164,540.582214 
	C766.754211,544.227783 766.930542,547.855774 766.186768,551.907349 
z"/>
<path fill="#000000" opacity="1.000000" stroke="none" 
	d="
M178.126038,431.208221 
	C178.119308,438.006531 176.115829,444.041107 175.067856,450.232422 
	C174.721878,452.276489 173.352066,453.131042 171.205917,453.345764 
	C162.278244,454.238983 161.836166,453.797729 158.680969,445.434326 
	C156.202881,438.865662 156.469528,432.595917 158.554657,426.020660 
	C160.150970,420.986786 163.380707,420.089142 168.065659,420.355164 
	C172.963730,420.633240 177.101974,421.251495 177.507980,427.342651 
	C177.584610,428.492523 177.894989,429.626770 178.126038,431.208221 
z"/>
</svg>